<?xml version="1.0" encoding="utf-8"?>
<!-- Generator: Adobe Illustrator 19.0.0, SVG Export Plug-In . SVG Version: 6.00 Build 0)  -->
<svg version="1.1" id="Layer_1" xmlns="http://www.w3.org/2000/svg" xmlns:xlink="http://www.w3.org/1999/xlink" x="0px" y="0px"
	 width="1400px" height="980px" viewBox="0 0 1400 980" enable-background="new 0 0 1400 980" xml:space="preserve">
<rect id="XMLID_21_" fill="#00A4AF" width="1400" height="980"/>
<circle id="XMLID_163_" fill="#372829" cx="592.7" cy="770" r="3.3"/>
<circle id="XMLID_107_" fill="#372829" cx="212.7" cy="770" r="3.3"/>
<circle id="XMLID_141_" fill="#372829" cx="421.7" cy="772" r="3.3"/>
<path id="XMLID_293_" fill="#00818C" d="M1267,649.5l-37.9-45.6v-39.5h1.5c0.8,0,1.4-0.6,1.4-1.4v-3.8c0-0.8-0.6-1.4-1.4-1.4h-25.6
	c-0.8,0-1.4,0.6-1.4,1.4v3.8c0,0.8,0.6,1.4,1.4,1.4h4v15.3l-25.5-30.7c-1.6-1.9-4.3-1.9-5.9,0l-82,98.7c-0.3-0.7-0.7-1.3-1.2-1.9
	l-37.8-41.4v-36.8h1.5c0.8,0,1.4-0.6,1.4-1.4v-3.8c0-0.8-0.6-1.4-1.4-1.4h-25.6c-0.8,0-1.4,0.6-1.4,1.4v3.8c0,0.8,0.6,1.4,1.4,1.4h4
	v14.7l-33.8-37c-1.7-1.9-4.7-1.9-6.4,0l-37,40.6l-52.6-56.3v-54.1h3c0.8,0,1.4-0.6,1.4-1.4v-6.3c0-0.8-0.6-1.4-1.4-1.4h-40.9
	c-0.8,0-1.4,0.6-1.4,1.4v6.3c0,0.8,0.6,1.4,1.4,1.4h6.9v20.9l-39.2-42c-2.4-2.6-6.6-2.6-9,0L703.2,587.7l-40.8-43.2
	c-1.4-1.5-3.9-1.5-5.3,0l-45.8,48.6v-52.5l3.6,3.5c3.4,3.3,9.3,3.6,13.2,0.7c3.8-2.9,4.2-8,0.8-11.3l-67.5-64.2v-36.1h1.5
	c0.8,0,1.4-0.6,1.4-1.4v-3.8c0-0.8-0.6-1.4-1.4-1.4h-25.6c-0.8,0-1.4,0.6-1.4,1.4v3.8c0,0.8,0.6,1.4,1.4,1.4h4v15.3l6.4,7.7
	l-32-30.4c-2.1-2-5.8-2-7.9,0l-113,107.8c-3.4,3.3-3.1,8.3,0.8,11.3c3.8,2.9,9.7,2.6,13.2-0.7l3.6-3.5v77.8h-3.6
	c-0.8,0-1.4,0.6-1.4,1.4v4.5c0,0.8,0.6,1.4,1.4,1.4h2v25.2h-2c-0.8,0-1.4,0.6-1.4,1.4v4.5c0,0.8,0.6,1.4,1.4,1.4h3.6v132.5h199.1
	v-1.2h7.7h4.1h18.2v1h37.1v-1h246.4v-90.2v-0.4h1.7c0.7,0,1.2-0.5,1.2-1.2v-4.6c0-0.7-0.5-1.2-1.2-1.2h-1.7v-29.6h1.5
	c0.8,0,1.4-0.6,1.4-1.4v-5.5c0-0.8-0.6-1.4-1.4-1.4h-1.5v-8.4l6.8-7.6v152.1h33.7h37.1h63.2V636.4l17.4,19.3
	c2.5,2.8,6.6,3.3,9.7,1.3c0.4,1.1,1,2.2,1.9,3c2.8,2.7,7.2,2.5,9.7-0.6l14.4-17.5V794h19.1h37.1h65.9V640.1l15.8,19.3
	c2.5,3.1,6.9,3.3,9.7,0.6C1269.2,657.3,1269.5,652.6,1267,649.5z M737.1,692h-2.5v-29.6h2.5V692z M731.2,692h-7.3v-29.6h7.3V692z
	 M737.1,654.1h-16.1v-29.9l8.5,9.1c2,2.1,5.2,2.6,7.7,1.3V654.1z M737.1,581.6v41.9l-19.6-20.7L737.1,581.6z M924.8,579.1l20.4,22.1
	l-20.4,22.4V579.1z"/>
<g id="XMLID_49_">
	<polygon id="XMLID_40_" fill="#4CCEC6" points="1144.9,617.6 1078.1,552.8 1011.4,617.6 1011.4,791.3 1144.9,791.3 	"/>
	<path id="XMLID_44_" fill="#8E6615" d="M1173.4,645.5L1082.1,544c-1.7-1.9-4.7-1.9-6.4,0l-91.2,101.5c-2.8,3.1-2.5,7.8,0.6,10.6
		c3.1,2.8,7.8,2.5,10.6-0.6l80-90.2c1.7-1.9,4.7-1.9,6.4,0l80,90.2c2.8,3.1,7.5,3.4,10.6,0.6S1176.2,648.6,1173.4,645.5z"/>
	<path id="XMLID_41_" fill="#0A465B" stroke="#8E6615" stroke-width="2" stroke-miterlimit="10" d="M1123,692.7h-26.5
		c-0.9,0-1.7-0.8-1.7-1.7v-31.3c0-0.9,0.8-1.7,1.7-1.7h26.5c0.9,0,1.7,0.8,1.7,1.7V691C1124.7,692,1124,692.7,1123,692.7z"/>
	<path id="XMLID_42_" fill="#8E6615" d="M1110.6,693h-1.4c-0.5,0-0.9-0.4-0.9-0.9v-33.5c0-0.5,0.4-0.9,0.9-0.9h1.4
		c0.5,0,0.9,0.4,0.9,0.9v33.5C1111.5,692.6,1111.1,693,1110.6,693z"/>
	<path id="XMLID_45_" fill="#8E6615" d="M1124.1,674.7v1.4c0,0.5-0.4,0.9-0.9,0.9h-27.6c-0.5,0-0.9-0.4-0.9-0.9v-1.4
		c0-0.5,0.4-0.9,0.9-0.9h27.6C1123.7,673.8,1124.1,674.2,1124.1,674.7z"/>
	<path id="XMLID_52_" fill="#0A465B" stroke="#8E6615" stroke-width="2" stroke-miterlimit="10" d="M1123,740.5h-26.5
		c-0.9,0-1.7-0.8-1.7-1.7v-31.3c0-0.9,0.8-1.7,1.7-1.7h26.5c0.9,0,1.7,0.8,1.7,1.7v31.3C1124.7,739.7,1124,740.5,1123,740.5z"/>
	<path id="XMLID_51_" fill="#8E6615" d="M1110.6,740.8h-1.4c-0.5,0-0.9-0.4-0.9-0.9v-33.5c0-0.5,0.4-0.9,0.9-0.9h1.4
		c0.5,0,0.9,0.4,0.9,0.9v33.5C1111.5,740.4,1111.1,740.8,1110.6,740.8z"/>
	<path id="XMLID_50_" fill="#8E6615" d="M1124.1,722.5v1.4c0,0.5-0.4,0.9-0.9,0.9h-27.6c-0.5,0-0.9-0.4-0.9-0.9v-1.4
		c0-0.5,0.4-0.9,0.9-0.9h27.6C1123.7,721.6,1124.1,722,1124.1,722.5z"/>
	<path id="XMLID_43_" fill="#8E6615" d="M1066.2,730.9H1039c-3.7,0-6.7,3.2-6.7,7.1v53.3h40.6V738
		C1072.9,734.1,1069.9,730.9,1066.2,730.9z"/>
	<circle id="XMLID_46_" fill="#372829" cx="1066.2" cy="770" r="3.3"/>
	<polygon id="XMLID_47_" fill="#4CCEC6" points="1109.9,575 1109.9,559.5 1132,559.5 1132,599.5 	"/>
	<path id="XMLID_48_" fill="#8E6615" d="M1133.4,559.5h-27.7c-0.9,0-1.7-0.8-1.7-1.7v-3.3c0-0.9,0.8-1.7,1.7-1.7h27.7
		c0.9,0,1.7,0.8,1.7,1.7v3.3C1135.1,558.8,1134.3,559.5,1133.4,559.5z"/>
</g>
<polygon id="XMLID_172_" fill="#4CCEC6" points="668.4,617.6 595.2,552.8 522,617.6 522,791.3 668.4,791.3 "/>
<path id="XMLID_170_" fill="#0A465B" stroke="#8E6615" stroke-width="2" stroke-miterlimit="10" d="M574.1,710.4h-26.5
	c-0.9,0-1.7-0.8-1.7-1.7v-31.3c0-0.9,0.8-1.7,1.7-1.7h26.5c0.9,0,1.7,0.8,1.7,1.7v31.3C575.8,709.6,575.1,710.4,574.1,710.4z"/>
<path id="XMLID_169_" fill="#8E6615" d="M561.7,710.7h-1.4c-0.5,0-0.9-0.4-0.9-0.9v-33.5c0-0.5,0.4-0.9,0.9-0.9h1.4
	c0.5,0,0.9,0.4,0.9,0.9v33.5C562.6,710.3,562.2,710.7,561.7,710.7z"/>
<path id="XMLID_168_" fill="#8E6615" d="M575.2,692.3v1.4c0,0.5-0.4,0.9-0.9,0.9h-27.6c-0.5,0-0.9-0.4-0.9-0.9v-1.4
	c0-0.5,0.4-0.9,0.9-0.9h27.6C574.8,691.4,575.2,691.8,575.2,692.3z"/>
<path id="XMLID_167_" fill="#0A465B" stroke="#8E6615" stroke-width="2" stroke-miterlimit="10" d="M647.2,710.4h-26.5
	c-0.9,0-1.7-0.8-1.7-1.7v-31.3c0-0.9,0.8-1.7,1.7-1.7h26.5c0.9,0,1.7,0.8,1.7,1.7v31.3C648.9,709.6,648.1,710.4,647.2,710.4z"/>
<path id="XMLID_166_" fill="#8E6615" d="M634.8,710.7h-1.4c-0.5,0-0.9-0.4-0.9-0.9v-33.5c0-0.5,0.4-0.9,0.9-0.9h1.4
	c0.5,0,0.9,0.4,0.9,0.9v33.5C635.6,710.3,635.2,710.7,634.8,710.7z"/>
<path id="XMLID_165_" fill="#8E6615" d="M648.3,692.3v1.4c0,0.5-0.4,0.9-0.9,0.9h-27.6c-0.5,0-0.9-0.4-0.9-0.9v-1.4
	c0-0.5,0.4-0.9,0.9-0.9h27.6C647.9,691.4,648.3,691.8,648.3,692.3z"/>
<path id="XMLID_164_" fill="#8E6615" d="M592.7,730.9h-27.3c-3.7,0-6.7,3.2-6.7,7.1v53.3h40.6V738
	C599.4,734.1,596.4,730.9,592.7,730.9z"/>
<polygon id="XMLID_162_" fill="#4CCEC6" points="636.4,582 636.4,566.5 658.4,566.5 658.4,606.5 "/>
<path id="XMLID_161_" fill="#8E6615" d="M659.9,566.5h-27.7c-0.9,0-1.7-0.8-1.7-1.7v-3.3c0-0.9,0.8-1.7,1.7-1.7h27.7
	c0.9,0,1.7,0.8,1.7,1.7v3.3C661.6,565.8,660.8,566.5,659.9,566.5z"/>
<polygon id="XMLID_104_" fill="#FFBC00" points="474.7,618.1 408,553.3 341.3,618.1 341.3,791.8 474.7,791.8 "/>
<path id="XMLID_159_" fill="#8E6615" d="M494.3,626.4l-83.4-81.6c-1.6-1.5-4.3-1.5-5.8,0l-83.3,81.6c-2.5,2.5-2.3,6.3,0.6,8.5
	c2.8,2.2,7.2,2,9.7-0.5l73.1-72.5c1.6-1.5,4.3-1.5,5.9,0l73.1,72.5c2.5,2.5,6.9,2.7,9.7,0.5C496.5,632.7,496.8,628.9,494.3,626.4z"
	/>
<polygon id="XMLID_106_" fill="#4CCEC6" points="264.9,446.3 264.9,430.9 286.9,430.9 286.9,470.8 "/>
<path id="XMLID_105_" fill="#4D1413" d="M288.4,430.9h-27.7c-0.9,0-1.7-0.8-1.7-1.7v-3.3c0-0.9,0.8-1.7,1.7-1.7h27.7
	c0.9,0,1.7,0.8,1.7,1.7v3.3C290.1,430.1,289.3,430.9,288.4,430.9z"/>
<polygon id="XMLID_116_" fill="#ACF2DE" points="341.5,535.1 232.7,439.4 124,535.1 124,791.8 341.5,791.8 "/>
<path id="XMLID_115_" fill="#8E6615" d="M360.7,532.1L237,423.4c-2.3-2-6.3-2-8.7,0L104.8,532.1c-3.7,3.3-3.4,8.4,0.8,11.4
	c4.2,3,10.6,2.7,14.4-0.7l108.4-96.7c2.3-2.1,6.4-2.1,8.7,0l108.4,96.7c3.7,3.3,10.2,3.6,14.4,0.7
	C364,540.5,364.4,535.4,360.7,532.1z"/>
<g id="XMLID_144_">
	<path id="XMLID_114_" stroke="#491913" stroke-width="2" stroke-miterlimit="10" d="M174.5,709.4H148c-0.9,0-1.7-0.8-1.7-1.7v-31.3
		c0-0.9,0.8-1.7,1.7-1.7h26.5c0.9,0,1.7,0.8,1.7,1.7v31.3C176.2,708.7,175.4,709.4,174.5,709.4z"/>
	<path id="XMLID_113_" fill="#8E6615" d="M162.1,709.7h-1.4c-0.5,0-0.9-0.4-0.9-0.9v-33.5c0-0.5,0.4-0.9,0.9-0.9h1.4
		c0.5,0,0.9,0.4,0.9,0.9v33.5C162.9,709.3,162.5,709.7,162.1,709.7z"/>
	<path id="XMLID_112_" fill="#8E6615" d="M175.6,691.4v1.4c0,0.5-0.4,0.9-0.9,0.9h-27.6c-0.5,0-0.9-0.4-0.9-0.9v-1.4
		c0-0.5,0.4-0.9,0.9-0.9h27.6C175.2,690.5,175.6,690.9,175.6,691.4z"/>
</g>
<g id="XMLID_146_">
	<path id="XMLID_111_" fill="#0A465B" stroke="#8E6615" stroke-width="2" stroke-miterlimit="10" d="M314.1,711h-26.5
		c-0.9,0-1.7-0.8-1.7-1.7V678c0-0.9,0.8-1.7,1.7-1.7h26.5c0.9,0,1.7,0.8,1.7,1.7v31.3C315.8,710.2,315.1,711,314.1,711z"/>
	<path id="XMLID_110_" fill="#8E6615" d="M301.7,711.3h-1.4c-0.5,0-0.9-0.4-0.9-0.9v-33.5c0-0.5,0.4-0.9,0.9-0.9h1.4
		c0.5,0,0.9,0.4,0.9,0.9v33.5C302.6,710.9,302.2,711.3,301.7,711.3z"/>
	<path id="XMLID_109_" fill="#8E6615" d="M315.2,693v1.4c0,0.5-0.4,0.9-0.9,0.9h-27.6c-0.5,0-0.9-0.4-0.9-0.9V693
		c0-0.5,0.4-0.9,0.9-0.9h27.6C314.8,692.1,315.2,692.5,315.2,693z"/>
</g>
<g id="XMLID_151_">
	<path id="XMLID_154_" fill="#0A465B" stroke="#8E6615" stroke-width="2" stroke-miterlimit="10" d="M314.1,570.6h-26.5
		c-0.9,0-1.7-0.8-1.7-1.7v-31.3c0-0.9,0.8-1.7,1.7-1.7h26.5c0.9,0,1.7,0.8,1.7,1.7v31.3C315.8,569.9,315.1,570.6,314.1,570.6z"/>
	<path id="XMLID_153_" fill="#8E6615" d="M301.7,570.9h-1.4c-0.5,0-0.9-0.4-0.9-0.9v-33.5c0-0.5,0.4-0.9,0.9-0.9h1.4
		c0.5,0,0.9,0.4,0.9,0.9v33.5C302.6,570.5,302.2,570.9,301.7,570.9z"/>
	<path id="XMLID_152_" fill="#8E6615" d="M315.2,552.6v1.4c0,0.5-0.4,0.9-0.9,0.9h-27.6c-0.5,0-0.9-0.4-0.9-0.9v-1.4
		c0-0.5,0.4-0.9,0.9-0.9h27.6C314.8,551.7,315.2,552.1,315.2,552.6z"/>
</g>
<g id="XMLID_155_">
	<path id="XMLID_158_" fill="#0A465B" stroke="#8E6615" stroke-width="2" stroke-miterlimit="10" d="M181.7,570.6h-26.5
		c-0.9,0-1.7-0.8-1.7-1.7v-31.3c0-0.9,0.8-1.7,1.7-1.7h26.5c0.9,0,1.7,0.8,1.7,1.7v31.3C183.4,569.9,182.7,570.6,181.7,570.6z"/>
	<path id="XMLID_157_" fill="#8E6615" d="M169.3,570.9h-1.4c-0.5,0-0.9-0.4-0.9-0.9v-33.5c0-0.5,0.4-0.9,0.9-0.9h1.4
		c0.5,0,0.9,0.4,0.9,0.9v33.5C170.2,570.5,169.8,570.9,169.3,570.9z"/>
	<path id="XMLID_156_" fill="#8E6615" d="M182.8,552.6v1.4c0,0.5-0.4,0.9-0.9,0.9h-27.6c-0.5,0-0.9-0.4-0.9-0.9v-1.4
		c0-0.5,0.4-0.9,0.9-0.9H182C182.4,551.7,182.8,552.1,182.8,552.6z"/>
</g>
<path id="XMLID_108_" fill="#664F00" d="M212.7,730.9h-27.3c-3.7,0-6.7,3.2-6.7,7.1v53.3h40.6V738
	C219.4,734.1,216.4,730.9,212.7,730.9z"/>
<path id="XMLID_150_" fill="#664F00" d="M243.4,591.3h-27.3c-3.7,0-6.7,3.2-6.7,7.1v53.3h40.6v-53.3
	C250.1,594.4,247.1,591.3,243.4,591.3z"/>
<circle id="XMLID_149_" fill="#372829" cx="243.4" cy="630.4" r="3.3"/>
<circle id="XMLID_27_" fill="#372829" cx="212.7" cy="763.1" r="3.3"/>
<path id="XMLID_142_" fill="#8E6615" d="M421.7,732.9h-27.3c-3.7,0-6.7,3.2-6.7,7.1v53.3h40.6V740
	C428.3,736.1,425.3,732.9,421.7,732.9z"/>
<g id="XMLID_69_">
	<polygon id="XMLID_66_" fill="#FFBC00" points="972.6,552.9 881.3,464.3 790,552.9 790,699.6 972.6,699.6 	"/>
	<path id="XMLID_65_" fill="#8E6615" d="M1011.7,591.2l-125-138.8c-2.3-2.6-6.4-2.6-8.7,0L753.1,591.2c-3.8,4.2-3.4,10.7,0.8,14.5
		c4.2,3.8,10.7,3.4,14.5-0.8L878,481.5c2.3-2.6,6.5-2.6,8.8,0l109.5,123.4c3.8,4.2,10.3,4.6,14.5,0.8
		C1015.1,601.9,1015.4,595.4,1011.7,591.2z"/>
	<path id="XMLID_64_" fill="#0A465B" stroke="#8E6615" stroke-width="2" stroke-miterlimit="10" d="M943.4,613.8h-37.5
		c-0.9,0-1.7-0.8-1.7-1.7v-44c0-0.9,0.8-1.7,1.7-1.7h37.5c0.9,0,1.7,0.8,1.7,1.7v44C945.1,613,944.3,613.8,943.4,613.8z"/>
	<path id="XMLID_63_" fill="#8E6615" d="M926.1,614.2h-2.6c-0.5,0-0.9-0.4-0.9-0.9v-46.5c0-0.5,0.4-0.9,0.9-0.9h2.6
		c0.5,0,0.9,0.4,0.9,0.9v46.5C927,613.8,926.6,614.2,926.1,614.2z"/>
	<path id="XMLID_62_" fill="#8E6615" d="M944.2,588.8v2.6c0,0.5-0.4,0.9-0.9,0.9H905c-0.5,0-0.9-0.4-0.9-0.9v-2.6
		c0-0.5,0.4-0.9,0.9-0.9h38.4C943.9,587.9,944.2,588.3,944.2,588.8z"/>
	<path id="XMLID_61_" fill="#0A465B" stroke="#8E6615" stroke-width="2" stroke-miterlimit="10" d="M851.2,613.8h-37.5
		c-0.9,0-1.7-0.8-1.7-1.7v-44c0-0.9,0.8-1.7,1.7-1.7h37.5c0.9,0,1.7,0.8,1.7,1.7v44C852.9,613,852.2,613.8,851.2,613.8z"/>
	<path id="XMLID_60_" fill="#8E6615" d="M834,614.2h-2.6c-0.5,0-0.9-0.4-0.9-0.9v-46.5c0-0.5,0.4-0.9,0.9-0.9h2.6
		c0.5,0,0.9,0.4,0.9,0.9v46.5C834.8,613.8,834.4,614.2,834,614.2z"/>
	<path id="XMLID_59_" fill="#8E6615" d="M852.1,588.8v2.6c0,0.5-0.4,0.9-0.9,0.9h-38.4c-0.5,0-0.9-0.4-0.9-0.9v-2.6
		c0-0.5,0.4-0.9,0.9-0.9h38.4C851.7,587.9,852.1,588.3,852.1,588.8z"/>
	<path id="XMLID_58_" fill="#8E6615" d="M895.6,725.4H867c-3.9,0-7,3.3-7,7.4v55.9h42.5v-55.9C902.6,728.7,899.4,725.4,895.6,725.4z
		"/>
	<circle id="XMLID_57_" fill="#372829" cx="895.6" cy="766.4" r="3.4"/>
	<path id="XMLID_67_" fill="#8E6615" d="M896.1,634.2h-29.5c-4,0-7.2,3.4-7.2,7.7v57.7h43.9v-57.7
		C903.3,637.6,900,634.2,896.1,634.2z"/>
	<circle id="XMLID_54_" fill="#372829" cx="896.1" cy="676.5" r="3.5"/>
	<polygon id="XMLID_56_" fill="#4CCEC6" points="924.8,494.7 924.8,473.5 954.9,473.5 954.9,528.1 	"/>
	<path id="XMLID_55_" fill="#784321" d="M957.5,473.5h-39.1c-0.9,0-1.7-0.8-1.7-1.7V466c0-0.9,0.8-1.7,1.7-1.7h39.1
		c0.9,0,1.7,0.8,1.7,1.7v5.8C959.3,472.8,958.5,473.5,957.5,473.5z"/>
	<rect id="XMLID_68_" x="675.1" y="698.7" fill="#FFBC00" width="297.5" height="91.9"/>
	<rect id="XMLID_73_" x="625.7" y="777.8" fill="#D7B7A3" width="53.4" height="12.8"/>
	<rect id="XMLID_74_" x="633.9" y="757" fill="#D7B7A3" width="50.1" height="12.8"/>
	<rect id="XMLID_75_" x="642.3" y="740" fill="#D7B7A3" width="53.9" height="12.8"/>
	<rect id="XMLID_80_" x="724.7" y="661" fill="#ABB7B8" width="3.3" height="31.1"/>
	<rect id="XMLID_81_" x="736.7" y="661" fill="#ABB7B8" width="3.3" height="31.1"/>
	<rect id="XMLID_82_" x="748" y="661" fill="#ABB7B8" width="3.3" height="31.1"/>
	<rect id="XMLID_83_" x="761.5" y="661" fill="#ABB7B8" width="3.3" height="31.1"/>
	<rect id="XMLID_84_" x="773.9" y="661" fill="#ABB7B8" width="3.3" height="31.1"/>
	<rect id="XMLID_85_" x="784.3" y="661" fill="#ABB7B8" width="3.3" height="31.1"/>
	<rect id="XMLID_98_" x="796.2" y="661" fill="#ABB7B8" width="3.3" height="31.1"/>
	<rect id="XMLID_97_" x="808.7" y="661" fill="#ABB7B8" width="3.3" height="31.1"/>
	<rect id="XMLID_96_" x="820.1" y="661" fill="#ABB7B8" width="3.3" height="31.1"/>
	<rect id="XMLID_95_" x="832" y="661" fill="#ABB7B8" width="3.3" height="31.1"/>
	<rect id="XMLID_94_" x="845.2" y="661" fill="#ABB7B8" width="3.3" height="31.1"/>
	<rect id="XMLID_93_" x="857.2" y="661" fill="#ABB7B8" width="3.3" height="31.1"/>
	<rect id="XMLID_92_" x="868.5" y="661" fill="#ABB7B8" width="3.3" height="31.1"/>
	<rect id="XMLID_91_" x="882" y="661" fill="#ABB7B8" width="3.3" height="31.1"/>
	<rect id="XMLID_90_" x="894.3" y="661" fill="#ABB7B8" width="3.3" height="31.1"/>
	<rect id="XMLID_89_" x="904.7" y="661" fill="#ABB7B8" width="3.3" height="31.1"/>
	<rect id="XMLID_103_" x="916.3" y="661" fill="#ABB7B8" width="3.3" height="31.1"/>
	<rect id="XMLID_102_" x="927.6" y="661" fill="#ABB7B8" width="3.3" height="31.1"/>
	<rect id="XMLID_101_" x="941" y="661" fill="#ABB7B8" width="3.3" height="31.1"/>
	<rect id="XMLID_100_" x="953.4" y="661" fill="#ABB7B8" width="3.3" height="31.1"/>
	<rect id="XMLID_99_" x="963.8" y="661" fill="#ABB7B8" width="3.3" height="31.1"/>
	<path id="XMLID_53_" fill="#8E6615" d="M973.8,662.2H722.2c-0.9,0-1.7-0.8-1.7-1.7v-5c0-0.9,0.8-1.7,1.7-1.7h251.6
		c0.9,0,1.7,0.8,1.7,1.7v5C975.5,661.5,974.7,662.2,973.8,662.2z"/>
	<path id="XMLID_71_" fill="#784321" d="M684.2,761.2h-53.7c-0.9,0-1.5-0.7-1.5-1.5v-5.3c0-0.9,0.7-1.5,1.5-1.5h53.7
		c0.9,0,1.5,0.7,1.5,1.5v5.3C685.7,760.5,685,761.2,684.2,761.2z"/>
	<path id="XMLID_87_" fill="#784321" d="M692.8,740h-53.7c-0.9,0-1.5-0.7-1.5-1.5v-5.3c0-0.9,0.7-1.5,1.5-1.5h53.7
		c0.9,0,1.5,0.7,1.5,1.5v5.3C694.3,739.3,693.6,740,692.8,740z"/>
	<rect id="XMLID_88_" x="661" y="718.8" fill="#D7B7A3" width="53.9" height="12.8"/>
	<path id="XMLID_86_" fill="#784321" d="M711.5,718.8h-53.7c-0.9,0-1.5-0.7-1.5-1.5v-5.3c0-0.9,0.7-1.5,1.5-1.5h53.7
		c0.9,0,1.5,0.7,1.5,1.5v5.3C713,718.1,712.3,718.8,711.5,718.8z"/>
	<path id="XMLID_72_" fill="#784321" d="M676.8,778.2h-54c-0.8,0-1.4-0.6-1.4-1.4v-5.6c0-0.8,0.6-1.4,1.4-1.4h54
		c0.8,0,1.4,0.6,1.4,1.4v5.6C678.2,777.6,677.5,778.2,676.8,778.2z"/>
	<path id="XMLID_70_" fill="#8E6615" d="M974,699.2H670.7c-0.8,0-1.4-0.6-1.4-1.4v-4.2c0-0.8,0.6-1.4,1.4-1.4H974
		c0.8,0,1.4,0.6,1.4,1.4v4.2C975.5,698.5,974.8,699.2,974,699.2z"/>
</g>
<g id="XMLID_77_">
	<rect id="XMLID_138_" x="122.3" y="624.1" fill="#8E6615" width="2.9" height="27.4"/>
	<rect id="XMLID_137_" x="132.9" y="624.1" fill="#8E6615" width="2.9" height="27.4"/>
	<rect id="XMLID_136_" x="142.8" y="624.1" fill="#8E6615" width="2.9" height="27.4"/>
	<rect id="XMLID_135_" x="154.7" y="624.1" fill="#8E6615" width="2.9" height="27.4"/>
	<rect id="XMLID_134_" x="165.6" y="624.1" fill="#8E6615" width="2.9" height="27.4"/>
	<rect id="XMLID_133_" x="174.7" y="624.1" fill="#8E6615" width="2.9" height="27.4"/>
	<rect id="XMLID_132_" x="185.2" y="624.1" fill="#8E6615" width="2.9" height="27.4"/>
	<rect id="XMLID_131_" x="196.2" y="624.1" fill="#8E6615" width="2.9" height="27.4"/>
	<rect id="XMLID_130_" x="206.2" y="624.1" fill="#8E6615" width="2.9" height="27.4"/>
	<rect id="XMLID_129_" x="216.7" y="624.1" fill="#8E6615" width="2.9" height="27.4"/>
	<rect id="XMLID_128_" x="228.3" y="624.1" fill="#8E6615" width="2.9" height="27.4"/>
	<rect id="XMLID_127_" x="238.9" y="624.1" fill="#8E6615" width="2.9" height="27.4"/>
	<rect id="XMLID_126_" x="248.9" y="624.1" fill="#8E6615" width="2.9" height="27.4"/>
	<rect id="XMLID_125_" x="260.7" y="624.1" fill="#8E6615" width="2.9" height="27.4"/>
	<rect id="XMLID_124_" x="271.6" y="624.1" fill="#8E6615" width="2.9" height="27.4"/>
	<rect id="XMLID_123_" x="280.7" y="624.1" fill="#8E6615" width="2.9" height="27.4"/>
	<rect id="XMLID_122_" x="290.9" y="624.1" fill="#8E6615" width="2.9" height="27.4"/>
	<rect id="XMLID_121_" x="300.9" y="624.1" fill="#8E6615" width="2.9" height="27.4"/>
	<rect id="XMLID_120_" x="312.7" y="624.1" fill="#8E6615" width="2.9" height="27.4"/>
	<rect id="XMLID_119_" x="323.6" y="624.1" fill="#8E6615" width="2.9" height="27.4"/>
	<rect id="XMLID_118_" x="332.7" y="624.1" fill="#8E6615" width="2.9" height="27.4"/>
	<path id="XMLID_117_" fill="#8E6615" d="M341.3,625.2H120.2c-0.9,0-1.7-0.8-1.7-1.7v-4c0-0.9,0.8-1.7,1.7-1.7h221.1
		c0.9,0,1.7,0.8,1.7,1.7v4C343.1,624.4,342.3,625.2,341.3,625.2z"/>
	<path id="XMLID_143_" fill="#8E6615" d="M341.3,658H120.2c-0.9,0-1.7-0.8-1.7-1.7v-4c0-0.9,0.8-1.7,1.7-1.7h221.1
		c0.9,0,1.7,0.8,1.7,1.7v4C343.1,657.3,342.3,658,341.3,658z"/>
</g>
<path id="XMLID_147_" fill="#0A465B" stroke="#8E6615" stroke-width="2" stroke-miterlimit="10" d="M417.1,639.5
	c-0.4-5.7-4.3-10.1-9.1-10.1c-4.8,0-8.7,4.5-9.1,10.1h0v12.7c0,3.2,2.6,5.9,5.9,5.9h6.5c3.2,0,5.9-2.6,5.9-5.9L417.1,639.5
	L417.1,639.5z"/>
<path id="XMLID_145_" fill="#0A465B" stroke="#8E6615" stroke-width="2" stroke-miterlimit="10" d="M240.3,475.5
	c-0.4-5.7-4.3-10.1-9.1-10.1c-4.8,0-8.7,4.5-9.1,10.1h0v12.7c0,3.2,2.6,5.9,5.9,5.9h6.5c3.2,0,5.9-2.6,5.9-5.9L240.3,475.5
	L240.3,475.5z"/>
<path id="XMLID_171_" fill="#8E6615" d="M699.7,645.5L599.5,544c-1.9-1.9-5.1-1.9-7,0L492.4,645.5c-3,3.1-2.7,7.8,0.7,10.6
	c3.4,2.8,8.6,2.5,11.6-0.6l87.8-90.2c1.9-1.9,5.2-1.9,7.1,0l87.8,90.2c3,3.1,8.2,3.4,11.6,0.6C702.4,653.4,702.7,648.6,699.7,645.5z
	"/>
<g id="XMLID_1_">
	<path id="XMLID_12_" fill="#282F39" d="M1114,752.7L1114,752.7l-9.2-17.1c-2.1-4.8-4.2-6.3-9.9-6.3l-110.7-1.8c-1.8,0-3,0-8.1,7
		l-11,15h-48c-4.6,0-8,2.1-7.1,8.7l1.5,11.6c0.4,3.6,2.9,5.3,5.8,6.2c0.7-6.6,6.3-11.7,13.1-11.7h5.5c7.2,0,15.4,5.6,15.4,12.8
		l110.7,0.9v-0.6c0-7.2,5.9-13.1,13.1-13.1h5.5c7.2,0,15.4,5.6,15.4,12.8l-0.8,1.2l12.2,0.1c4.6,0,8.4-3.8,8.4-8.4v-12
		C1115.9,756,1115.2,754.2,1114,752.7z"/>
	<path id="XMLID_2_" fill="#D2D7D3" d="M1012.9,730.6l-27.9-0.6c-1.8,0-3,0.6-6.3,4.7c0,0-6.3,8.9-9.4,13.2
		c-0.8,1.1,0.6,1.6,1.9,1.6l41.8,0.5c1.4,0,2.4-1.6,2.4-3v-14C1015.4,731.7,1014.3,730.6,1012.9,730.6z"/>
	<path id="XMLID_9_" fill="#D2D7D3" d="M1019.9,730.6l28,0.1c1.8,0,3-0.1,6.2,4.3c0,0,5.5,9.6,8.6,14.1c0.8,1.2,0.3,2-1.1,2
		l-41.7-0.6c-1.4,0-2.5-1.2-2.5-2.6v-14.6C1017.4,731.8,1018.5,730.6,1019.9,730.6z"/>
	<path id="XMLID_8_" fill="#D2D7D3" d="M1107.6,751.6h-35.9c-3.4,0-5.2-0.5-6.7-2.6l-10.1-16.2c-0.9-1.3-1.1-2.1,1.7-2.1l39.8,0.9
		c1.2,0,3,0.6,4.6,3.1l8.6,14.8C1109.7,750.6,1108.7,751.6,1107.6,751.6z"/>
	<path id="XMLID_11_" fill="#647589" d="M1062.1,756.6h-4.5c-0.5,0-1-0.4-1-1l0,0c0-0.5,0.4-1,1-1h4.5c0.5,0,1,0.4,1,1l0,0
		C1063,756.2,1062.6,756.6,1062.1,756.6z"/>
	<path id="XMLID_13_" fill="#647589" d="M1012.1,755.5h-4.5c-0.5,0-1-0.4-1-1l0,0c0-0.5,0.4-1,1-1h4.5c0.5,0,1,0.4,1,1l0,0
		C1013,755,1012.6,755.5,1012.1,755.5z"/>
	<circle id="XMLID_10_" cx="934.5" cy="777" r="14.1"/>
	<circle id="XMLID_15_" fill="#6E7A8A" cx="934.5" cy="777" r="10.4"/>
	<circle id="XMLID_16_" fill="#50616D" cx="934.5" cy="777" r="9.6"/>
	<circle id="XMLID_17_" fill="#282F39" cx="934.5" cy="777" r="3.3"/>
	<circle id="XMLID_20_" cx="1079" cy="777" r="14.1"/>
	<circle id="XMLID_18_" fill="#6E7A8A" cx="1079" cy="777" r="10.4"/>
	<circle id="XMLID_4_" fill="#50616D" cx="1079" cy="777" r="9.6"/>
	<circle id="XMLID_3_" fill="#282F39" cx="1079" cy="777" r="3.3"/>
	<path id="XMLID_23_" fill="#E56B39" d="M912,759v-2.6c0-0.7-0.6-1.3-1.3-1.3h-0.7c-0.1,0.9-0.1,1.9,0.1,3.1l0.3,2h0.3
		C911.4,760.3,912,759.7,912,759z"/>
	<path id="XMLID_25_" fill="#EDA842" d="M912.2,764.2v-2.6c0-0.7-0.6-1.3-1.3-1.3h-0.5l0.7,5.1C911.7,765.4,912.2,764.9,912.2,764.2
		z"/>
	<path id="XMLID_14_" fill="#647589" d="M913.5,771.9h-3c-1.1,0-2-0.9-2-2l0,0c0-1.1,0.9-2,2-2h3c1.1,0,2,0.9,2,2l0,0
		C915.5,771,914.6,771.9,913.5,771.9z"/>
	<path id="XMLID_19_" fill="#647589" d="M1115.9,774.8h-11.3c-1.1,0-2-0.9-2-2l0,0c0-1.1,0.9-2,2-2h11.3c1.1,0,2,0.9,2,2l0,0
		C1117.9,773.9,1117,774.8,1115.9,774.8z"/>
	<path id="XMLID_26_" fill="#E56B39" d="M1115.8,757.3h-1.2c-0.6,0-1,0.5-1,1v7.3c0,0.6,0.5,1,1,1h1.2V758
		C1115.9,757.7,1115.9,757.5,1115.8,757.3z"/>
	<polygon id="XMLID_34_" fill="#FFFFFF" points="990.2,730.2 979.5,749.7 984.9,749.8 995.6,730.3 	"/>
	<polygon id="XMLID_37_" fill="#FFFFFF" points="998.9,730.3 988.3,749.8 990.7,749.8 1001.4,730.4 	"/>
	<polygon id="XMLID_31_" fill="#FFFFFF" points="1032,730.7 1021.2,750.5 1026.5,750.6 1037.5,730.7 	"/>
	<polygon id="XMLID_35_" fill="#FFFFFF" points="1040.9,730.7 1029.9,750.6 1032.4,750.7 1043.3,730.7 	"/>
	<path id="XMLID_28_" fill="#FFFFFF" d="M1081.3,731.2l-11.2,20.4c0.5,0,1,0,1.5,0h3.9l11.1-20.3L1081.3,731.2z"/>
	<polygon id="XMLID_32_" fill="#FFFFFF" points="1090.1,731.4 1079,751.6 1081.5,751.6 1092.5,731.4 	"/>
</g>
<g id="XMLID_36_">
	<path id="XMLID_322_" fill="#FF7112" d="M677.7,751L677.7,751l-9.8-18.3c-2.2-5.2-4.5-6.7-10.6-6.7l-118.7-2c-1.9,0-3.2,0-8.7,7.5
		l-11.8,16.1h-51.4c-5,0-8.6,2.2-7.6,9.3l1.6,12.5c0.5,3.8,3.1,5.7,6.2,6.6c0.7-7.1,6.7-12.6,14-12.6h5.9c7.8,0,16.5,6,16.5,13.7
		l118.6,0.9v-0.6c0-7.8,6.3-14.1,14.1-14.1h5.9c7.8,0,16.5,6,16.5,13.7l-0.9,1.3l13.1,0.1c5,0,9-4,9-9v-12.9
		C679.7,754.5,679,752.6,677.7,751z"/>
	<path id="XMLID_321_" fill="#D2D7D3" d="M569.4,727.3l-29.9-0.6c-2,0-3.3,0.6-6.7,5.1c0,0-6.7,9.5-10.1,14.2
		c-0.9,1.2,0.6,1.7,2.1,1.7l44.8,0.6c1.5,0,2.6-1.8,2.6-3.2v-15C572,728.5,570.8,727.3,569.4,727.3z"/>
	<path id="XMLID_320_" fill="#D2D7D3" d="M576.8,727.3l30,0.1c2,0,3.2-0.1,6.6,4.6c0,0,5.8,10.3,9.2,15.1c0.9,1.3,0.3,2.2-1.2,2.2
		l-44.7-0.7c-1.5,0-2.7-1.3-2.7-2.8v-15.7C574.1,728.6,575.3,727.3,576.8,727.3z"/>
	<path id="XMLID_319_" fill="#D2D7D3" d="M670.8,749.8h-38.4c-3.7,0-5.5-0.5-7.1-2.8l-10.8-17.4c-1-1.4-1.2-2.3,1.8-2.3l42.7,1
		c1.3,0,3.2,0.6,5,3.4l9.2,15.9C673.1,748.8,672.1,749.8,670.8,749.8z"/>
	<path id="XMLID_318_" fill="#1A3B4C" d="M622,755.1h-4.8c-0.6,0-1-0.5-1-1l0,0c0-0.6,0.5-1,1-1h4.8c0.6,0,1,0.5,1,1l0,0
		C623.1,754.7,622.6,755.1,622,755.1z"/>
	<path id="XMLID_317_" fill="#1A3B4C" d="M568.4,753.9h-4.8c-0.6,0-1-0.5-1-1l0,0c0-0.6,0.5-1,1-1h4.8c0.6,0,1,0.5,1,1l0,0
		C569.5,753.5,569,753.9,568.4,753.9z"/>
	<circle id="XMLID_316_" cx="485.3" cy="777.1" r="15.2"/>
	<circle id="XMLID_315_" fill="#6E7A8A" cx="485.3" cy="777.1" r="11.2"/>
	<circle id="XMLID_314_" fill="#D2D7D3" cx="485.3" cy="777.1" r="10.3"/>
	<circle id="XMLID_313_" fill="#282F39" cx="485.3" cy="777.1" r="3.6"/>
	<circle id="XMLID_312_" cx="640.2" cy="777.1" r="15.2"/>
	<circle id="XMLID_311_" fill="#6E7A8A" cx="640.2" cy="777.1" r="11.2"/>
	<circle id="XMLID_310_" fill="#D2D7D3" cx="640.2" cy="777.1" r="10.3"/>
	<circle id="XMLID_309_" fill="#282F39" cx="640.2" cy="777.1" r="3.6"/>
	<path id="XMLID_308_" fill="#E91B00" d="M461.2,757.7V755c0-0.8-0.6-1.4-1.4-1.4h-0.7c-0.1,1-0.1,2.1,0.1,3.3l0.3,2.2h0.3
		C460.6,759.1,461.2,758.5,461.2,757.7z"/>
	<path id="XMLID_307_" fill="#E91B00" d="M461.4,763.3v-2.8c0-0.8-0.6-1.4-1.4-1.4h-0.6l0.7,5.5C460.9,764.6,461.4,764,461.4,763.3z
		"/>
	<path id="XMLID_306_" fill="#D2D7D3" d="M462.8,771.6h-3.2c-1.2,0-2.1-1-2.1-2.1l0,0c0-1.2,1-2.1,2.1-2.1h3.2c1.2,0,2.1,1,2.1,2.1
		l0,0C464.9,770.6,464,771.6,462.8,771.6z"/>
	<path id="XMLID_305_" fill="#D2D7D3" d="M679.7,774.6h-12.1c-1.2,0-2.1-1-2.1-2.1l0,0c0-1.2,1-2.1,2.1-2.1h12.1
		c1.2,0,2.1,1,2.1,2.1l0,0C681.9,773.7,680.9,774.6,679.7,774.6z"/>
	<path id="XMLID_304_" fill="#E91B00" d="M679.7,755.8h-1.3c-0.6,0-1.1,0.5-1.1,1.1v7.8c0,0.6,0.5,1.1,1.1,1.1h1.3v-9.2
		C679.7,756.4,679.7,756.1,679.7,755.8z"/>
	<polygon id="XMLID_303_" fill="#FFFFFF" points="545,726.8 533.5,747.7 539.3,747.8 550.8,726.9 	"/>
	<polygon id="XMLID_302_" fill="#FFFFFF" points="554.4,727 542.9,747.9 545.6,747.9 557,727 	"/>
	<polygon id="XMLID_301_" fill="#FFFFFF" points="589.8,727.3 578.2,748.6 584,748.7 595.7,727.4 	"/>
	<polygon id="XMLID_300_" fill="#FFFFFF" points="599.3,727.4 587.6,748.8 590.2,748.8 602,727.4 	"/>
	<path id="XMLID_299_" fill="#FFFFFF" d="M642.7,727.9l-12,21.8c0.5,0,1,0,1.6,0h4.2l11.9-21.7L642.7,727.9z"/>
	<polygon id="XMLID_298_" fill="#FFFFFF" points="652.1,728.1 640.2,749.8 642.8,749.8 654.7,728.2 	"/>
</g>
<path id="XMLID_326_" fill="#FFFFFF" d="M321.8,221.5h-15.1h-13.1c-4.7,0-8.5-3.8-8.5-8.5s3.8-8.5,8.5-8.5h10.1
	c6.4,0,11.6-5.2,11.6-11.6c0-6.4-5.2-11.6-11.6-11.6H185.6c-6.4,0-11.6,5.2-11.6,11.6c0,6.4,5.2,11.6,11.6,11.6h8.3
	c4.7,0,8.5,3.8,8.5,8.5s-3.8,8.5-8.5,8.5h-11.3h-33.8c-6.4,0-11.6,5.2-11.6,11.6c0,6.4,5.2,11.6,11.6,11.6h173
	c6.4,0,11.6-5.2,11.6-11.6C333.4,226.7,328.2,221.5,321.8,221.5z"/>
<path id="XMLID_325_" fill="#FFFFFF" d="M1303.1,340.9H1288h-13.1c-4.7,0-8.5-3.8-8.5-8.5s3.8-8.5,8.5-8.5h10.1
	c6.4,0,11.6-5.2,11.6-11.6c0-6.4-5.2-11.6-11.6-11.6h-118.1c-6.4,0-11.6,5.2-11.6,11.6c0,6.4,5.2,11.6,11.6,11.6h8.3
	c4.7,0,8.5,3.8,8.5,8.5s-3.8,8.5-8.5,8.5h-11.3h-33.8c-6.4,0-11.6,5.2-11.6,11.6c0,6.4,5.2,11.6,11.6,11.6h173
	c6.4,0,11.6-5.2,11.6-11.6C1314.7,346.1,1309.5,340.9,1303.1,340.9z"/>
<path id="XMLID_328_" fill="#FFFFFF" d="M974,200.5h-15.1H774.4c-4.7,0-8.5-3.8-8.5-8.5s3.8-8.5,8.5-8.5h10.1
	c6.4,0,11.6-5.2,11.6-11.6c0-6.4-5.2-11.6-11.6-11.6H666.5c-6.4,0-11.6,5.2-11.6,11.6c0,6.4,5.2,11.6,11.6,11.6h8.3
	c4.7,0,8.5,3.8,8.5,8.5s-3.8,8.5-8.5,8.5h-11.3h-33.8c-6.4,0-11.6,5.2-11.6,11.6c0,6.4,5.2,11.6,11.6,11.6H974
	c6.4,0,11.6-5.2,11.6-11.6C985.6,205.7,980.4,200.5,974,200.5z"/>
<circle id="XMLID_324_" fill="#FFFFFF" cx="117.3" cy="233.3" r="11.4"/>
<circle id="XMLID_323_" fill="#FFFFFF" cx="1272.2" cy="114.8" r="11.4"/>
<path id="XMLID_297_" fill="#FFFFFF" d="M1227.2,99.5h-63.7h-78.5h-1.2c-2.4,0-4.4-2-4.4-4.4s2-4.4,4.4-4.4h7.2c3-1.4,5-4.4,5-7.9v0
	c0-4.8-3.9-8.7-8.7-8.7H998c-4.8,0-8.7,3.9-8.7,8.7v0c0,3.5,2.1,6.5,5,7.9h3.2c2.4,0,4.4,2,4.4,4.4s-2,4.4-4.4,4.4h-0.9h-9
	c-7.5,0-13.6,6.1-13.6,13.6v0c0,7.5,6.1,13.6,13.6,13.6h239.5c7.5,0,13.6-6.1,13.6-13.6v0C1240.8,105.6,1234.7,99.5,1227.2,99.5z"/>
<g id="XMLID_6_">
	<circle id="XMLID_347_" opacity="0.1" fill="#FFFFFF" cx="458.6" cy="127.1" r="95.4"/>
	<circle id="XMLID_346_" opacity="0.1" fill="#FFFFFF" cx="458.6" cy="127.1" r="82.8"/>
	<circle id="XMLID_345_" opacity="0.1" fill="#FFFFFF" cx="458.6" cy="127.1" r="71.4"/>
	<circle id="XMLID_344_" fill="#F7CE2C" cx="458.6" cy="127.1" r="56.3"/>
	<circle id="XMLID_334_" opacity="0.9" fill="#FFFFFF" cx="452.8" cy="88.6" r="10.5"/>
	<circle id="XMLID_333_" opacity="0.9" fill="#FFFFFF" cx="475.1" cy="102.3" r="5.3"/>
	<path id="XMLID_332_" opacity="0.3" fill="#FFFFFF" d="M420.1,99.1c8,0.1-19,15.8,4.7,59.6c3.4,6.3-10.8,2.6-17.3-18.1
		C401.9,122.4,407.8,98.9,420.1,99.1z"/>
</g>
<path id="XMLID_76_" fill="#282F39" d="M1311.2,837.5h-1205c-12.8,0-23.1-10.4-23.1-23.1v0c0-12.8,10.4-23.1,23.1-23.1h1205
	c12.8,0,23.1,10.4,23.1,23.1v0C1334.3,827.2,1324,837.5,1311.2,837.5z"/>
<g id="XMLID_5_">
	<ellipse id="XMLID_30_" fill="#98E337" cx="1256.8" cy="662.3" rx="78.2" ry="80.4"/>
	<path id="XMLID_331_" fill="#89C737" d="M1335,662.3c0-9.9-1.8-19.4-5-28.2c-10.3-7.7-22.9-12.3-36.7-12.3
		c-34.4,0-62.3,28.7-62.3,64.1c0,24.4,13.3,45.6,32.8,56.5C1303.7,738.6,1335,704.2,1335,662.3z"/>
	
		<path id="XMLID_29_" fill="none" stroke="#302623" stroke-width="4" stroke-linecap="round" stroke-linejoin="round" stroke-miterlimit="10" d="
		M1258.9,789.8c0.3,0,0.6,0,0.9,0V675.3"/>
	
		<polyline id="XMLID_33_" fill="none" stroke="#302623" stroke-width="4" stroke-linecap="round" stroke-linejoin="round" stroke-miterlimit="10" points="
		1223.7,706.1 1259.8,723.7 1259.8,701.3 1284,688.1 	"/>
</g>
<g id="XMLID_7_">
	<ellipse id="XMLID_327_" fill="#98E337" cx="832.7" cy="728.1" rx="38.8" ry="39.9"/>
	<path id="XMLID_79_" fill="#89C737" d="M871.5,728.1c0-4.9-0.9-9.6-2.5-14c-5.1-3.8-11.4-6.1-18.2-6.1c-17.1,0-30.9,14.2-30.9,31.8
		c0,12.1,6.6,22.7,16.3,28C856,766,871.5,748.9,871.5,728.1z"/>
	
		<path id="XMLID_78_" fill="none" stroke="#302623" stroke-width="4" stroke-linecap="round" stroke-linejoin="round" stroke-miterlimit="10" d="
		M833.8,791.4c0.1,0,0.3,0,0.4,0v-56.9"/>
	
		<polyline id="XMLID_39_" fill="none" stroke="#302623" stroke-width="4" stroke-linecap="round" stroke-linejoin="round" stroke-miterlimit="10" points="
		816.3,749.8 834.2,758.6 834.2,747.4 846.2,740.8 	"/>
</g>
<g id="XMLID_329_">
	<ellipse id="XMLID_339_" fill="#98E337" cx="429.6" cy="701.4" rx="54.7" ry="56.3"/>
	<path id="XMLID_337_" fill="#89C737" d="M484.3,701.4c0-6.9-1.2-13.6-3.5-19.7c-7.2-5.4-16.1-8.6-25.7-8.6
		c-24.1,0-43.6,20.1-43.6,44.9c0,17.1,9.3,32,23,39.5C462.4,754.9,484.3,730.8,484.3,701.4z"/>
	
		<path id="XMLID_336_" fill="none" stroke="#302623" stroke-width="4" stroke-linecap="round" stroke-linejoin="round" stroke-miterlimit="10" d="
		M431.1,790.7c0.2,0,0.4,0,0.6,0v-80.2"/>
	
		<polyline id="XMLID_330_" fill="none" stroke="#302623" stroke-width="4" stroke-linecap="round" stroke-linejoin="round" stroke-miterlimit="10" points="
		406.4,732.1 431.7,744.5 431.7,728.7 448.6,719.5 	"/>
</g>
<g id="XMLID_350_">
	<ellipse id="XMLID_354_" fill="#98E337" cx="787.6" cy="732.6" rx="36" ry="37"/>
	<path id="XMLID_353_" fill="#89C737" d="M823.6,732.6c0-4.6-0.8-8.9-2.3-13c-4.7-3.6-10.6-5.7-16.9-5.7
		c-15.9,0-28.7,13.2-28.7,29.5c0,11.3,6.1,21,15.1,26C809.2,767.8,823.6,751.9,823.6,732.6z"/>
	
		<path id="XMLID_352_" fill="none" stroke="#302623" stroke-width="4" stroke-linecap="round" stroke-linejoin="round" stroke-miterlimit="10" d="
		M788.6,791.4c0.1,0,0.3,0,0.4,0v-52.8"/>
	
		<polyline id="XMLID_351_" fill="none" stroke="#302623" stroke-width="4" stroke-linecap="round" stroke-linejoin="round" stroke-miterlimit="10" points="
		772.3,752.8 789,760.9 789,750.6 800.1,744.5 	"/>
</g>
<g id="XMLID_355_">
	<ellipse id="XMLID_359_" fill="#98E337" cx="720.5" cy="723.7" rx="41.5" ry="42.6"/>
	<path id="XMLID_358_" fill="#89C737" d="M761.9,723.7c0-5.3-0.9-10.3-2.6-15c-5.5-4.1-12.2-6.5-19.4-6.5c-18.3,0-33.1,15.2-33.1,34
		c0,13,7.1,24.2,17.4,30C745.4,764.2,761.9,746,761.9,723.7z"/>
	
		<path id="XMLID_357_" fill="none" stroke="#302623" stroke-width="4" stroke-linecap="round" stroke-linejoin="round" stroke-miterlimit="10" d="
		M721.6,791.4c0.2,0,0.3,0,0.5,0v-60.8"/>
	
		<polyline id="XMLID_356_" fill="none" stroke="#302623" stroke-width="4" stroke-linecap="round" stroke-linejoin="round" stroke-miterlimit="10" points="
		702.9,747 722.1,756.3 722.1,744.4 734.9,737.4 	"/>
</g>
<g id="XMLID_340_">
	<ellipse id="XMLID_349_" fill="#98E337" cx="128.2" cy="697.2" rx="57.8" ry="59.4"/>
	<path id="XMLID_348_" fill="#89C737" d="M186,697.2c0-7.3-1.3-14.3-3.7-20.8c-7.6-5.7-16.9-9.1-27.1-9.1
		c-25.4,0-46.1,21.2-46.1,47.4c0,18,9.8,33.7,24.3,41.7C162.9,753.6,186,728.1,186,697.2z"/>
	
		<path id="XMLID_343_" fill="none" stroke="#302623" stroke-width="4" stroke-linecap="round" stroke-linejoin="round" stroke-miterlimit="10" d="
		M129.8,791.4c0.2,0,0.4,0,0.7,0v-84.6"/>
	
		<polyline id="XMLID_342_" fill="none" stroke="#302623" stroke-width="4" stroke-linecap="round" stroke-linejoin="round" stroke-miterlimit="10" points="
		103.8,729.5 130.5,742.6 130.5,726 148.4,716.2 	"/>
</g>
</svg>
